# xmcd
#
# Track frame offsets:
#	150
#	9961
#	20764
#	33214
#	43074
#	55403
#	65822
#	76286
#	86699
#	98338
#	108510
#	118784
#	128417
#	138452
#	152577
#	164684
#	175473
#	188938
#	200074
#	209764
#	226064
#	235219
#	246970
#	256732
#	268107
#	277934
#	289405
#	299847
#	310446
#	322559
#
# Disc length: 4501
#
# Revision: 1
# Processed by: cddbd v1.5.1PL0 Copyright (c) Steve Scherf et al.
# Submitted via: EasyCDDAExtractor 4.6.0.1
# Normalized: r0:TDELIM( - )
#
DISCID=bb11931e
DTITLE=Various Artist - A Million Dollars Worth Of Doo-Wop  Vol 2
DYEAR=1900
DGENRE=Blues
TTITLE0=Teen Kings - That's A Teenage Love
TTITLE1=Universals - A Love Only You Can Give
TTITLE2=Four Kings - Walkin' Alone
TTITLE3=Clocks - It's Written
TTITLE4=Cor-Dons - Is She The One
TTITLE5=Nap Roman and Group - Tears From Your Eyes
TTITLE6=Drakes - Oo-Wee So Good
TTITLE7=Supremes - Could This Be You
TTITLE8=Cezannes - Pardon Me
TTITLE9=Belvederes - Bouna Sera
TTITLE10=Hi-Lites - Gloria My Darling
TTITLE11=Tendertones - Just For A Little While
TTITLE12=Termites - Give Me Your Heart
TTITLE13=Devotions (Little Marcus and the) - I'll Always Remember
TTITLE14=Thrills - Papa's Shotgun
TTITLE15=Hightones - We Met At A Dance
TTITLE16=Stimulators - Warm Summer Nights
TTITLE17=Rialtos - Let Me In
TTITLE18=Masters - Crying My Heart Out
TTITLE19=Avalons - Begin The Beguine
TTITLE20=Dreams - I Love You
TTITLE21=Epics - Summer's Coming In
TTITLE22=Moniques - All The Way Now
TTITLE23=Cool-Gents - A Beggar To A Queen
TTITLE24=Newports (Tyrone and The) - I Feel Like A Million
TTITLE25=Mello-Harps - I Love Only You
TTITLE26=Ambassadors - Lorraine
TTITLE27=Five Sounds - Good Time Baby
TTITLE28=Emeralds - Please Don't Crush My Dreams
TTITLE29=Love-Tones - Talk To An Angel
EXTD=
EXTT0=
EXTT1=
EXTT2=
EXTT3=
EXTT4=
EXTT5=
EXTT6=
EXTT7=
EXTT8=
EXTT9=
EXTT10=
EXTT11=
EXTT12=
EXTT13=
EXTT14=
EXTT15=
EXTT16=
EXTT17=
EXTT18=
EXTT19=
EXTT20=
EXTT21=
EXTT22=
EXTT23=
EXTT24=
EXTT25=
EXTT26=
EXTT27=
EXTT28=
EXTT29=
PLAYORDER=
